<mxfile host="app.diagrams.net" modified="2022-06-22T18:59:16.852Z" agent="5.0 (Macintosh; Intel Mac OS X 10_15_7) AppleWebKit/537.36 (KHTML, like Gecko) Chrome/102.0.5005.115 Safari/537.36" etag="SJFKX-JQHmZL1sXZHixz" version="20.0.3" type="github">
  <diagram id="GHujqGR_0_3O3QubCWxv" name="Page-1">
    <mxGraphModel dx="1018" dy="585" grid="1" gridSize="10" guides="1" tooltips="1" connect="1" arrows="1" fold="1" page="1" pageScale="1" pageWidth="850" pageHeight="1100" math="0" shadow="0">
      <root>
        <mxCell id="0" />
        <mxCell id="1" parent="0" />
        <mxCell id="SW76FyMLyOVb3IWlOXmc-3" value="&lt;font style=&quot;font-size: 18px&quot;&gt;UI (Telegram Bot)&lt;br&gt;&lt;/font&gt;" style="rounded=0;whiteSpace=wrap;html=1;fillColor=#d5e8d4;strokeColor=#82b366;" parent="1" vertex="1">
          <mxGeometry x="160" y="440" width="200" height="40" as="geometry" />
        </mxCell>
        <mxCell id="SW76FyMLyOVb3IWlOXmc-5" value="&lt;font style=&quot;font-size: 18px&quot;&gt;Data Scanner&lt;br&gt;&lt;/font&gt;" style="rounded=0;whiteSpace=wrap;html=1;fillColor=#d5e8d4;strokeColor=#82b366;" parent="1" vertex="1">
          <mxGeometry x="80" y="150" width="200" height="40" as="geometry" />
        </mxCell>
        <mxCell id="SW76FyMLyOVb3IWlOXmc-7" value="&lt;font style=&quot;font-size: 18px&quot;&gt;User&lt;/font&gt;" style="rounded=0;whiteSpace=wrap;html=1;" parent="1" vertex="1">
          <mxGeometry x="320" y="560" width="200" height="40" as="geometry" />
        </mxCell>
        <mxCell id="SW76FyMLyOVb3IWlOXmc-9" value="&lt;font style=&quot;font-size: 18px&quot;&gt;Monitor Server&lt;br&gt;&lt;/font&gt;" style="rounded=0;whiteSpace=wrap;html=1;fillColor=#d5e8d4;strokeColor=#82b366;" parent="1" vertex="1">
          <mxGeometry x="560" y="150" width="200" height="40" as="geometry" />
        </mxCell>
        <mxCell id="SW76FyMLyOVb3IWlOXmc-12" value="&lt;font style=&quot;font-size: 18px&quot;&gt;Telegram API&lt;br&gt;&lt;/font&gt;" style="rounded=0;whiteSpace=wrap;html=1;fillColor=#fff2cc;strokeColor=#d6b656;" parent="1" vertex="1">
          <mxGeometry x="95" y="310" width="170" height="40" as="geometry" />
        </mxCell>
        <mxCell id="SW76FyMLyOVb3IWlOXmc-13" value="DB&lt;br&gt;(PostgreSQL)" style="shape=cylinder3;whiteSpace=wrap;html=1;boundedLbl=1;backgroundOutline=1;size=15;fontSize=18;fillColor=#fff2cc;strokeColor=#d6b656;" parent="1" vertex="1">
          <mxGeometry x="360" y="260" width="120" height="120" as="geometry" />
        </mxCell>
        <mxCell id="SW76FyMLyOVb3IWlOXmc-17" value="" style="endArrow=none;html=1;rounded=0;fontSize=18;" parent="1" edge="1">
          <mxGeometry width="50" height="50" relative="1" as="geometry">
            <mxPoint x="80" y="1390" as="sourcePoint" />
            <mxPoint x="80" y="840" as="targetPoint" />
          </mxGeometry>
        </mxCell>
        <mxCell id="SW76FyMLyOVb3IWlOXmc-18" value="" style="endArrow=none;html=1;rounded=0;fontSize=18;" parent="1" edge="1">
          <mxGeometry width="50" height="50" relative="1" as="geometry">
            <mxPoint x="240" y="1390" as="sourcePoint" />
            <mxPoint x="240" y="840" as="targetPoint" />
          </mxGeometry>
        </mxCell>
        <mxCell id="SW76FyMLyOVb3IWlOXmc-19" value="" style="endArrow=none;html=1;rounded=0;fontSize=18;" parent="1" edge="1">
          <mxGeometry width="50" height="50" relative="1" as="geometry">
            <mxPoint x="400" y="1390" as="sourcePoint" />
            <mxPoint x="400" y="840" as="targetPoint" />
          </mxGeometry>
        </mxCell>
        <mxCell id="SW76FyMLyOVb3IWlOXmc-20" value="" style="endArrow=classic;html=1;rounded=0;fontSize=18;" parent="1" edge="1">
          <mxGeometry width="50" height="50" relative="1" as="geometry">
            <mxPoint x="80" y="890" as="sourcePoint" />
            <mxPoint x="240" y="890" as="targetPoint" />
          </mxGeometry>
        </mxCell>
        <mxCell id="SW76FyMLyOVb3IWlOXmc-21" value="" style="endArrow=classic;html=1;rounded=0;fontSize=18;" parent="1" edge="1">
          <mxGeometry width="50" height="50" relative="1" as="geometry">
            <mxPoint x="240" y="930" as="sourcePoint" />
            <mxPoint x="400" y="930" as="targetPoint" />
          </mxGeometry>
        </mxCell>
        <mxCell id="SW76FyMLyOVb3IWlOXmc-22" value="User" style="text;html=1;strokeColor=none;fillColor=none;align=center;verticalAlign=middle;whiteSpace=wrap;rounded=0;fontSize=18;" parent="1" vertex="1">
          <mxGeometry x="50" y="790" width="60" height="30" as="geometry" />
        </mxCell>
        <mxCell id="SW76FyMLyOVb3IWlOXmc-23" value="Bot Service" style="text;html=1;strokeColor=none;fillColor=none;align=center;verticalAlign=middle;whiteSpace=wrap;rounded=0;fontSize=18;" parent="1" vertex="1">
          <mxGeometry x="210" y="800" width="60" height="30" as="geometry" />
        </mxCell>
        <mxCell id="SW76FyMLyOVb3IWlOXmc-24" value="DB" style="text;html=1;strokeColor=none;fillColor=none;align=center;verticalAlign=middle;whiteSpace=wrap;rounded=0;fontSize=18;" parent="1" vertex="1">
          <mxGeometry x="370" y="800" width="60" height="30" as="geometry" />
        </mxCell>
        <mxCell id="SW76FyMLyOVb3IWlOXmc-25" value="Add Req" style="text;html=1;strokeColor=none;fillColor=none;align=center;verticalAlign=middle;whiteSpace=wrap;rounded=0;fontSize=18;" parent="1" vertex="1">
          <mxGeometry x="120" y="860" width="80" height="30" as="geometry" />
        </mxCell>
        <mxCell id="SW76FyMLyOVb3IWlOXmc-26" value="Check/Insert" style="text;html=1;strokeColor=none;fillColor=none;align=center;verticalAlign=middle;whiteSpace=wrap;rounded=0;fontSize=18;" parent="1" vertex="1">
          <mxGeometry x="280" y="890" width="80" height="30" as="geometry" />
        </mxCell>
        <mxCell id="SW76FyMLyOVb3IWlOXmc-27" value="" style="endArrow=classic;html=1;rounded=0;fontSize=18;" parent="1" edge="1">
          <mxGeometry width="50" height="50" relative="1" as="geometry">
            <mxPoint x="240" y="970" as="sourcePoint" />
            <mxPoint x="80" y="970" as="targetPoint" />
          </mxGeometry>
        </mxCell>
        <mxCell id="SW76FyMLyOVb3IWlOXmc-28" value="Res" style="text;html=1;strokeColor=none;fillColor=none;align=center;verticalAlign=middle;whiteSpace=wrap;rounded=0;fontSize=18;" parent="1" vertex="1">
          <mxGeometry x="120" y="930" width="80" height="30" as="geometry" />
        </mxCell>
        <mxCell id="SW76FyMLyOVb3IWlOXmc-29" value="" style="endArrow=none;html=1;rounded=0;fontSize=18;" parent="1" edge="1">
          <mxGeometry width="50" height="50" relative="1" as="geometry">
            <mxPoint x="559" y="1390" as="sourcePoint" />
            <mxPoint x="559" y="840" as="targetPoint" />
          </mxGeometry>
        </mxCell>
        <mxCell id="SW76FyMLyOVb3IWlOXmc-30" value="Notification Service" style="text;html=1;strokeColor=none;fillColor=none;align=center;verticalAlign=middle;whiteSpace=wrap;rounded=0;fontSize=18;" parent="1" vertex="1">
          <mxGeometry x="530" y="790" width="60" height="30" as="geometry" />
        </mxCell>
        <mxCell id="SW76FyMLyOVb3IWlOXmc-31" value="&lt;font style=&quot;font-size: 24px&quot;&gt;High Level Architecture&lt;/font&gt;" style="text;html=1;strokeColor=none;fillColor=none;align=center;verticalAlign=middle;whiteSpace=wrap;rounded=0;fontSize=18;" parent="1" vertex="1">
          <mxGeometry x="270" y="10" width="360" height="30" as="geometry" />
        </mxCell>
        <mxCell id="SW76FyMLyOVb3IWlOXmc-32" value="&lt;font style=&quot;font-size: 24px&quot;&gt;Sequence Diagram&lt;/font&gt;" style="text;html=1;strokeColor=none;fillColor=none;align=center;verticalAlign=middle;whiteSpace=wrap;rounded=0;fontSize=18;" parent="1" vertex="1">
          <mxGeometry x="245" y="730" width="360" height="30" as="geometry" />
        </mxCell>
        <mxCell id="ezqKsXHrbujZz1b1Dgfs-1" value="" style="endArrow=classic;html=1;rounded=0;fontSize=18;" parent="1" edge="1">
          <mxGeometry width="50" height="50" relative="1" as="geometry">
            <mxPoint x="80" y="1080" as="sourcePoint" />
            <mxPoint x="240" y="1080" as="targetPoint" />
          </mxGeometry>
        </mxCell>
        <mxCell id="ezqKsXHrbujZz1b1Dgfs-2" value="Get Status" style="text;html=1;strokeColor=none;fillColor=none;align=center;verticalAlign=middle;whiteSpace=wrap;rounded=0;fontSize=18;" parent="1" vertex="1">
          <mxGeometry x="100" y="1050" width="100" height="30" as="geometry" />
        </mxCell>
        <mxCell id="ezqKsXHrbujZz1b1Dgfs-3" value="" style="endArrow=classic;html=1;rounded=0;fontSize=18;" parent="1" edge="1">
          <mxGeometry width="50" height="50" relative="1" as="geometry">
            <mxPoint x="240" y="1120" as="sourcePoint" />
            <mxPoint x="560" y="1120" as="targetPoint" />
          </mxGeometry>
        </mxCell>
        <mxCell id="lu8FV4uFXRG9BCWqKN9u-1" value="" style="endArrow=classic;startArrow=classic;html=1;rounded=0;entryX=0.5;entryY=1;entryDx=0;entryDy=0;exitX=0;exitY=0.5;exitDx=0;exitDy=0;exitPerimeter=0;" edge="1" parent="1" source="SW76FyMLyOVb3IWlOXmc-13" target="SW76FyMLyOVb3IWlOXmc-5">
          <mxGeometry width="50" height="50" relative="1" as="geometry">
            <mxPoint x="490" y="400" as="sourcePoint" />
            <mxPoint x="540" y="350" as="targetPoint" />
          </mxGeometry>
        </mxCell>
        <mxCell id="lu8FV4uFXRG9BCWqKN9u-3" value="&lt;font style=&quot;font-size: 18px&quot;&gt;Data Analyser&lt;br&gt;&lt;/font&gt;" style="rounded=0;whiteSpace=wrap;html=1;fillColor=#d5e8d4;strokeColor=#82b366;" vertex="1" parent="1">
          <mxGeometry x="320" y="150" width="200" height="40" as="geometry" />
        </mxCell>
        <mxCell id="lu8FV4uFXRG9BCWqKN9u-4" value="" style="endArrow=classic;startArrow=classic;html=1;rounded=0;entryX=0.5;entryY=1;entryDx=0;entryDy=0;exitX=0.5;exitY=0;exitDx=0;exitDy=0;exitPerimeter=0;" edge="1" parent="1" source="SW76FyMLyOVb3IWlOXmc-13" target="lu8FV4uFXRG9BCWqKN9u-3">
          <mxGeometry width="50" height="50" relative="1" as="geometry">
            <mxPoint x="440" y="340" as="sourcePoint" />
            <mxPoint x="490" y="290" as="targetPoint" />
          </mxGeometry>
        </mxCell>
        <mxCell id="lu8FV4uFXRG9BCWqKN9u-5" value="" style="endArrow=classic;startArrow=classic;html=1;rounded=0;exitX=0.5;exitY=0;exitDx=0;exitDy=0;entryX=0.5;entryY=1;entryDx=0;entryDy=0;" edge="1" parent="1" source="SW76FyMLyOVb3IWlOXmc-3" target="SW76FyMLyOVb3IWlOXmc-12">
          <mxGeometry width="50" height="50" relative="1" as="geometry">
            <mxPoint x="320" y="410" as="sourcePoint" />
            <mxPoint x="370" y="360" as="targetPoint" />
          </mxGeometry>
        </mxCell>
        <mxCell id="lu8FV4uFXRG9BCWqKN9u-6" value="" style="endArrow=classic;startArrow=classic;html=1;rounded=0;exitX=0.5;exitY=0;exitDx=0;exitDy=0;entryX=0.5;entryY=1;entryDx=0;entryDy=0;" edge="1" parent="1" source="SW76FyMLyOVb3IWlOXmc-12" target="SW76FyMLyOVb3IWlOXmc-5">
          <mxGeometry width="50" height="50" relative="1" as="geometry">
            <mxPoint x="320" y="410" as="sourcePoint" />
            <mxPoint x="180" y="190" as="targetPoint" />
          </mxGeometry>
        </mxCell>
        <mxCell id="lu8FV4uFXRG9BCWqKN9u-7" value="&lt;font style=&quot;font-size: 18px&quot;&gt;Monitor Client&lt;br&gt;&lt;/font&gt;" style="rounded=0;whiteSpace=wrap;html=1;fillColor=#d5e8d4;strokeColor=#82b366;" vertex="1" parent="1">
          <mxGeometry x="480" y="440" width="200" height="40" as="geometry" />
        </mxCell>
        <mxCell id="lu8FV4uFXRG9BCWqKN9u-8" value="" style="endArrow=classic;startArrow=classic;html=1;rounded=0;entryX=0.5;entryY=1;entryDx=0;entryDy=0;entryPerimeter=0;exitX=0.5;exitY=0;exitDx=0;exitDy=0;" edge="1" parent="1" source="SW76FyMLyOVb3IWlOXmc-3" target="SW76FyMLyOVb3IWlOXmc-13">
          <mxGeometry width="50" height="50" relative="1" as="geometry">
            <mxPoint x="320" y="430" as="sourcePoint" />
            <mxPoint x="370" y="380" as="targetPoint" />
          </mxGeometry>
        </mxCell>
        <mxCell id="lu8FV4uFXRG9BCWqKN9u-12" value="" style="endArrow=classic;startArrow=classic;html=1;rounded=0;entryX=0.5;entryY=1;entryDx=0;entryDy=0;exitX=0.5;exitY=0;exitDx=0;exitDy=0;" edge="1" parent="1" source="lu8FV4uFXRG9BCWqKN9u-7" target="SW76FyMLyOVb3IWlOXmc-9">
          <mxGeometry width="50" height="50" relative="1" as="geometry">
            <mxPoint x="350" y="490" as="sourcePoint" />
            <mxPoint x="660" y="360" as="targetPoint" />
          </mxGeometry>
        </mxCell>
        <mxCell id="lu8FV4uFXRG9BCWqKN9u-14" value="" style="endArrow=classic;startArrow=classic;html=1;rounded=0;entryX=0.5;entryY=1;entryDx=0;entryDy=0;exitX=0.5;exitY=0;exitDx=0;exitDy=0;" edge="1" parent="1" source="SW76FyMLyOVb3IWlOXmc-7" target="lu8FV4uFXRG9BCWqKN9u-7">
          <mxGeometry width="50" height="50" relative="1" as="geometry">
            <mxPoint x="350" y="490" as="sourcePoint" />
            <mxPoint x="400" y="440" as="targetPoint" />
          </mxGeometry>
        </mxCell>
        <mxCell id="lu8FV4uFXRG9BCWqKN9u-15" value="" style="endArrow=classic;startArrow=classic;html=1;rounded=0;exitX=0.5;exitY=1;exitDx=0;exitDy=0;entryX=0.5;entryY=0;entryDx=0;entryDy=0;" edge="1" parent="1" source="SW76FyMLyOVb3IWlOXmc-3" target="SW76FyMLyOVb3IWlOXmc-7">
          <mxGeometry width="50" height="50" relative="1" as="geometry">
            <mxPoint x="350" y="490" as="sourcePoint" />
            <mxPoint x="400" y="440" as="targetPoint" />
          </mxGeometry>
        </mxCell>
        <mxCell id="lu8FV4uFXRG9BCWqKN9u-22" value="&lt;font style=&quot;font-size: 18px&quot;&gt;SMTP Service&lt;br&gt;&lt;/font&gt;" style="rounded=0;whiteSpace=wrap;html=1;fillColor=#fff2cc;strokeColor=#d6b656;" vertex="1" parent="1">
          <mxGeometry x="335" y="70" width="170" height="40" as="geometry" />
        </mxCell>
        <mxCell id="lu8FV4uFXRG9BCWqKN9u-24" value="" style="endArrow=classic;html=1;rounded=0;fontSize=18;entryX=0.5;entryY=1;entryDx=0;entryDy=0;exitX=0.5;exitY=0;exitDx=0;exitDy=0;" edge="1" parent="1" source="lu8FV4uFXRG9BCWqKN9u-3" target="lu8FV4uFXRG9BCWqKN9u-22">
          <mxGeometry width="50" height="50" relative="1" as="geometry">
            <mxPoint x="460" y="290" as="sourcePoint" />
            <mxPoint x="420" y="120" as="targetPoint" />
          </mxGeometry>
        </mxCell>
        <mxCell id="lu8FV4uFXRG9BCWqKN9u-25" value="&lt;font style=&quot;font-size: 18px&quot;&gt;SMTP Service&lt;br&gt;&lt;/font&gt;" style="rounded=0;whiteSpace=wrap;html=1;fillColor=#fff2cc;strokeColor=#d6b656;" vertex="1" parent="1">
          <mxGeometry x="70" y="560" width="170" height="40" as="geometry" />
        </mxCell>
        <mxCell id="lu8FV4uFXRG9BCWqKN9u-26" value="" style="endArrow=classic;html=1;rounded=0;fontSize=18;exitX=1;exitY=0.5;exitDx=0;exitDy=0;entryX=0;entryY=0.5;entryDx=0;entryDy=0;" edge="1" parent="1" source="lu8FV4uFXRG9BCWqKN9u-25" target="SW76FyMLyOVb3IWlOXmc-7">
          <mxGeometry width="50" height="50" relative="1" as="geometry">
            <mxPoint x="460" y="520" as="sourcePoint" />
            <mxPoint x="510" y="470" as="targetPoint" />
          </mxGeometry>
        </mxCell>
        <mxCell id="lu8FV4uFXRG9BCWqKN9u-27" value="" style="endArrow=classic;startArrow=classic;html=1;rounded=0;fontSize=18;entryX=0.5;entryY=1;entryDx=0;entryDy=0;exitX=1;exitY=0.5;exitDx=0;exitDy=0;exitPerimeter=0;" edge="1" parent="1" source="SW76FyMLyOVb3IWlOXmc-13" target="SW76FyMLyOVb3IWlOXmc-9">
          <mxGeometry width="50" height="50" relative="1" as="geometry">
            <mxPoint x="470" y="340" as="sourcePoint" />
            <mxPoint x="520" y="290" as="targetPoint" />
          </mxGeometry>
        </mxCell>
      </root>
    </mxGraphModel>
  </diagram>
</mxfile>
